<?xml version="1.0" encoding="utf-8"?>
<!-- Generator: Adobe Illustrator 16.0.0, SVG Export Plug-In . SVG Version: 6.00 Build 0)  -->
<!DOCTYPE svg PUBLIC "-//W3C//DTD SVG 1.1//EN" "http://www.w3.org/Graphics/SVG/1.1/DTD/svg11.dtd">
<svg version="1.1" id="Layer_1" xmlns="http://www.w3.org/2000/svg" xmlns:xlink="http://www.w3.org/1999/xlink" x="0px" y="0px"
	 width="250px" height="250px" viewBox="0 0 250 250" enable-background="new 0 0 250 250" xml:space="preserve">
<path fill="#FFCCD0" d="M41.749,138.229c8.063,1.188,23.648-1.942,28.029,2.131c-9.444,6.021-19.134,8.361-28.559,11.367
	c-4.707,1.502-10.434,2.043-11.347,8.439c-0.796,5.574,3.104,8.779,6.143,12.986c11.039,15.275,22.435,11.453,36.596,4.457
	c14.741-7.278,27.025-18.396,41.862-26.131c2.549,6.476-1.52,10.004-2.629,14.271c-3.421,13.147-15.416,24.735-7.591,40.006
	c3.559,6.378,4.184,5.599,5.435,7.642c4.455,4.386,8.015,11.899,15.067,10.088c5.05-1.301,2.634-8.188,4.511-12.676l1.108-3.205
	c3.829-11.367,10.308-28.158,11.667-43.549c0.293-3.313-0.605-13.599,8.577-9.468c14.694,6.614,13.69,7.243,20.298,10.827
	c9.813,5.322,42.568,21.563,52.421,26.814c-3.159-11.619-2.767-23.394-12.36-30.996c-11.146-8.83-23.828-14.401-36.979-19.349
	c-2.819-1.059-7.731-0.909-7.692-7.099c21.778,4.757,42.902-4.406,64.578-1.795c3.813,0.457,11.658,1.854,8.932-5.816
	c-2.842-7.986-5.922-17.662-18.821-15.326c-13.556,2.456-27.351,1.758-45.083,0.761c19.5-10.597,33.711-22.626,51.484-29.406
	c-4.258-7.628-8.397-15.226-12.717-22.72c-2.265-3.924-5.365-6.835-10.188-4.012c-10.881,6.371-21.926,12.534-32.266,19.704
	c-3.313,2.296-6.025,6.421-10.139,5.413c-5.341-1.309-3.837-23.801-6.773-31.146c-1.438-6.955-5.73-12.686-10.194-17.485
	c-2.16-2.32-4.808-9.455-10.416-5.599c-5.106,3.513-10.219,10.337-5.001,15.401c6.466,6.277,1.175,45.191-0.066,52.688
	c-2.257,13.616-8.742,16.794-20.351,10.025c-20.85-12.155-41.586-24.511-62.248-36.981c-3.493-2.107-6.552-4-9.523,0.07
	c-2.624,3.595-3.899,7.762,0.04,11.209c11.514,10.084,21.264,22.52,36.437,27.8c4.02,1.396,8.02,2.756,10.288,7.339
	c-2.783,0.25-5.051,0.457-7.318,0.661c-9.264,0.443-14.834-2.363-28.293-0.613c-6.542,1-14.658,2.628-16.756,3.043
	c0,0-1.176,0.243-2.298,0.291c-1.122,0.048-7.263-0.297-10.884-0.572c-3.774-0.288-7.662-0.486-8.8,4.15
	c-1.117,4.548,0.893,8.102,5.146,9.941C17.94,133.053,29.061,137.104,41.749,138.229z"/>
</svg>
