<?xml version="1.0" encoding="utf-8"?>
<!-- Generator: Adobe Illustrator 16.0.0, SVG Export Plug-In . SVG Version: 6.00 Build 0)  -->
<!DOCTYPE svg PUBLIC "-//W3C//DTD SVG 1.1//EN" "http://www.w3.org/Graphics/SVG/1.1/DTD/svg11.dtd">
<svg version="1.1" id="Layer_1" xmlns="http://www.w3.org/2000/svg" xmlns:xlink="http://www.w3.org/1999/xlink" x="0px" y="0px"
	 width="626.063px" height="132.5px" viewBox="0 0 626.063 132.5" enable-background="new 0 0 626.063 132.5" xml:space="preserve">
<path fill="#EB2227" d="M42.028,74.221c4.984,0.735,14.621-1.201,17.33,1.316c-5.839,3.723-11.829,5.173-17.657,7.031
	c-2.91,0.928-6.451,1.264-7.015,5.218c-0.492,3.446,1.919,5.428,3.798,8.028c6.824,9.444,13.87,7.081,22.625,2.758
	c9.115-4.502,16.71-11.373,25.882-16.155c1.576,4.003-0.94,6.184-1.625,8.822c-2.116,8.128-9.53,15.292-4.694,24.735
	c2.2,3.944,2.586,3.461,3.36,4.723c2.755,2.711,4.955,7.356,9.315,6.237c3.121-0.806,1.629-5.063,2.79-7.837l0.684-1.982
	c2.367-7.027,6.373-17.408,7.213-26.922c0.181-2.048-0.373-8.409,5.302-5.854c9.085,4.09,8.465,4.477,12.551,6.695
	c6.065,3.29,26.319,13.332,32.41,16.578c-1.955-7.184-1.712-14.465-7.643-19.163c-6.891-5.46-14.731-8.904-22.863-11.961
	c-1.743-0.654-4.779-0.562-4.756-4.393c13.464,2.944,26.525-2.722,39.924-1.109c2.358,0.282,7.209,1.146,5.522-3.595
	c-1.756-4.938-3.662-10.919-11.637-9.476c-8.381,1.52-16.909,1.087-27.873,0.47c12.056-6.553,20.841-13.989,31.831-18.179
	c-2.633-4.718-5.192-9.416-7.863-14.047c-1.399-2.427-3.317-4.227-6.299-2.48c-6.727,3.939-13.555,7.749-19.948,12.181
	c-2.047,1.42-3.725,3.972-6.268,3.347c-3.302-0.81-2.372-14.714-4.188-19.257c-0.888-4.299-3.542-7.843-6.303-10.81
	c-1.333-1.433-2.972-5.845-6.439-3.461c-3.158,2.172-6.318,6.39-3.092,9.521c4,3.882,0.727,27.941-0.04,32.576
	c-1.396,8.418-5.406,10.383-12.581,6.197c-12.89-7.514-25.71-15.152-38.486-22.862c-2.16-1.305-4.051-2.473-5.889,0.043
	c-1.623,2.222-2.41,4.798,0.026,6.929c7.119,6.234,13.145,13.924,22.527,17.188c2.486,0.863,4.959,1.705,6.359,4.538
	c-1.72,0.154-3.121,0.283-4.523,0.409c-5.729,0.272-9.172-1.461-17.494-0.379c-4.046,0.619-9.063,1.622-10.36,1.881
	c0,0-0.728,0.149-1.422,0.181c-0.692,0.028-4.489-0.183-6.729-0.354c-2.332-0.179-4.736-0.301-5.441,2.565
	c-0.689,2.812,0.551,5.011,3.182,6.146C27.309,71.021,34.184,73.522,42.028,74.221z"/>
<line fill="none" stroke="#000000" stroke-width="2" stroke-miterlimit="10" x1="201.366" y1="4.979" x2="201.366" y2="127.103"/>
<rect x="238.295" y="13.81" fill="none" width="110.257" height="47.489"/>
<text transform="matrix(1 0 0 1 238.2939 57.7402)" font-family="'MyriadPro-Semibold'" font-size="61.8744">INTI</text>
<rect x="240.295" y="79.71" fill="none" width="307.359" height="40.259"/>
<text transform="matrix(1 0 0 1 240.2939 86.9404)" fill="#5E5F5F" font-family="'MyriadPro-Regular'" font-size="30.9372">International University</text>
<rect x="240.295" y="101.952" fill="none" width="360.217" height="15.011"/>
<text transform="matrix(1 0 0 1 240.2939 116.5938)" font-family="'MyriadPro-Semibold'" font-size="20.6248">LAUREATE</text>
<text transform="matrix(1 0 0 1 334.2393 116.5938)" font-family="'MyriadPro-Regular'" font-size="20.6248"> </text>
<text transform="matrix(1 0 0 1 338.6094 116.5938)" fill="#5E5F5F" font-family="'MyriadPro-Regular'" font-size="20.6248">INTERNATIONAL UNIVERSITIES</text>
<path fill="#5E5F5F" d="M604.362,97.396c1.732,0,3.129,1.395,3.129,3.127c0,1.733-1.396,3.129-3.129,3.129
	c-1.73,0-3.128-1.396-3.128-3.129S602.631,97.396,604.362,97.396z M604.362,96.674c-2.114,0-3.851,1.732-3.851,3.849
	s1.734,3.851,3.851,3.851c2.118,0,3.851-1.734,3.851-3.851S606.48,96.674,604.362,96.674L604.362,96.674z"/>
<path fill="#5E5F5F" d="M605.277,101.63c-0.24,0.193-0.577,0.338-0.915,0.338c-0.817,0-1.443-0.626-1.443-1.445
	s0.626-1.443,1.443-1.443c0.387,0,0.771,0.145,1.011,0.433l0.53-0.53c-0.386-0.386-0.964-0.624-1.541-0.624
	c-1.201,0-2.165,0.963-2.165,2.165c0,1.201,0.964,2.167,2.165,2.167c0.53,0,0.964-0.193,1.348-0.482L605.277,101.63z"/>
</svg>
